<mxfile host="65bd71144e">
    <diagram id="kVus8gG1QY5zGodGb1XB" name="Страница 1">
        <mxGraphModel dx="1596" dy="1078" grid="1" gridSize="10" guides="1" tooltips="1" connect="1" arrows="1" fold="1" page="1" pageScale="1" pageWidth="827" pageHeight="1169" math="0" shadow="0">
            <root>
                <mxCell id="0"/>
                <mxCell id="1" parent="0"/>
                <mxCell id="4" style="edgeStyle=none;html=1;entryX=0.5;entryY=0;entryDx=0;entryDy=0;" edge="1" parent="1" source="2" target="3">
                    <mxGeometry relative="1" as="geometry"/>
                </mxCell>
                <mxCell id="2" value="start" style="rounded=1;whiteSpace=wrap;html=1;" vertex="1" parent="1">
                    <mxGeometry x="260" y="30" width="120" height="60" as="geometry"/>
                </mxCell>
                <mxCell id="22" style="edgeStyle=none;html=1;entryX=0.5;entryY=0;entryDx=0;entryDy=0;" edge="1" parent="1" source="3" target="21">
                    <mxGeometry relative="1" as="geometry"/>
                </mxCell>
                <mxCell id="3" value="&lt;div style=&quot;color: rgb(101 , 123 , 131) ; background-color: rgb(253 , 246 , 227) ; font-family: &amp;#34;consolas&amp;#34; , &amp;#34;courier new&amp;#34; , monospace ; font-size: 16px ; line-height: 22px&quot;&gt;&lt;span style=&quot;color: #859900&quot;&gt;string&lt;/span&gt;[] arrayIn&lt;br&gt;&lt;div style=&quot;line-height: 22px&quot;&gt;&lt;span style=&quot;color: #859900&quot;&gt;string&lt;/span&gt;[] arrayOut&lt;/div&gt;&lt;div style=&quot;line-height: 22px&quot;&gt;&lt;div style=&quot;font-family: &amp;#34;consolas&amp;#34; , &amp;#34;courier new&amp;#34; , monospace ; line-height: 22px&quot;&gt;&lt;span style=&quot;color: #859900&quot;&gt;int&lt;/span&gt; count&lt;/div&gt;&lt;/div&gt;&lt;/div&gt;" style="shape=parallelogram;perimeter=parallelogramPerimeter;whiteSpace=wrap;html=1;fixedSize=1;shadow=0;fillColor=#FFFFFF;" vertex="1" parent="1">
                    <mxGeometry x="222.5" y="130" width="195" height="70" as="geometry"/>
                </mxCell>
                <mxCell id="10" style="edgeStyle=none;html=1;entryX=0.5;entryY=0;entryDx=0;entryDy=0;" edge="1" parent="1" source="7" target="9">
                    <mxGeometry relative="1" as="geometry"/>
                </mxCell>
                <mxCell id="17" style="edgeStyle=none;html=1;entryX=0;entryY=0.5;entryDx=0;entryDy=0;" edge="1" parent="1" source="7" target="13">
                    <mxGeometry relative="1" as="geometry"/>
                </mxCell>
                <mxCell id="7" value="&lt;div style=&quot;color: rgb(101 , 123 , 131) ; background-color: rgb(253 , 246 , 227) ; font-family: &amp;#34;consolas&amp;#34; , &amp;#34;courier new&amp;#34; , monospace ; font-size: 16px ; line-height: 22px&quot;&gt;&lt;div style=&quot;font-family: &amp;#34;consolas&amp;#34; , &amp;#34;courier new&amp;#34; , monospace ; line-height: 22px&quot;&gt;&lt;span style=&quot;color: #859900&quot;&gt;if&lt;/span&gt; (&lt;span style=&quot;color: #268bd2&quot;&gt;arrayIn&lt;/span&gt;[&lt;span style=&quot;color: #268bd2&quot;&gt;i&lt;/span&gt;]&lt;span style=&quot;color: #859900&quot;&gt;.&lt;/span&gt;&lt;span style=&quot;color: #268bd2&quot;&gt;Length&lt;/span&gt; &lt;span style=&quot;color: #859900&quot;&gt;&amp;lt;=&lt;/span&gt; &lt;span style=&quot;color: #d33682&quot;&gt;3&lt;/span&gt;)&lt;/div&gt;&lt;/div&gt;" style="rhombus;whiteSpace=wrap;html=1;" vertex="1" parent="1">
                    <mxGeometry x="180" y="440" width="280" height="95" as="geometry"/>
                </mxCell>
                <mxCell id="12" style="edgeStyle=none;html=1;exitX=0;exitY=0.5;exitDx=0;exitDy=0;" edge="1" parent="1" source="9">
                    <mxGeometry relative="1" as="geometry">
                        <mxPoint x="320" y="260" as="targetPoint"/>
                        <Array as="points">
                            <mxPoint x="140" y="620"/>
                            <mxPoint x="140" y="610"/>
                            <mxPoint x="140" y="328"/>
                            <mxPoint x="140" y="260"/>
                        </Array>
                    </mxGeometry>
                </mxCell>
                <mxCell id="9" value="&lt;div style=&quot;color: rgb(101 , 123 , 131) ; background-color: rgb(253 , 246 , 227) ; font-family: &amp;#34;consolas&amp;#34; , &amp;#34;courier new&amp;#34; , monospace ; font-size: 16px ; line-height: 22px&quot;&gt;&lt;div&gt;&lt;span style=&quot;color: #268bd2&quot;&gt;arrayOut&lt;/span&gt;[&lt;span style=&quot;color: #268bd2&quot;&gt;count&lt;/span&gt;] &lt;span style=&quot;color: #859900&quot;&gt;=&lt;/span&gt; &lt;span style=&quot;color: #268bd2&quot;&gt;arrayIn&lt;/span&gt;[&lt;span style=&quot;color: #268bd2&quot;&gt;i&lt;/span&gt;]&lt;/div&gt;&lt;div&gt;&lt;span style=&quot;color: #268bd2&quot;&gt;count&lt;/span&gt;&lt;span style=&quot;color: #859900&quot;&gt;++&lt;/span&gt;&lt;/div&gt;&lt;/div&gt;" style="rounded=0;whiteSpace=wrap;html=1;" vertex="1" parent="1">
                    <mxGeometry x="192.5" y="590" width="255" height="60" as="geometry"/>
                </mxCell>
                <mxCell id="11" value="yes" style="text;html=1;align=center;verticalAlign=middle;resizable=0;points=[];autosize=1;strokeColor=none;fillColor=none;" vertex="1" parent="1">
                    <mxGeometry x="290" y="550" width="30" height="20" as="geometry"/>
                </mxCell>
                <mxCell id="19" style="edgeStyle=none;html=1;" edge="1" parent="1" source="13">
                    <mxGeometry relative="1" as="geometry">
                        <mxPoint x="320" y="260" as="targetPoint"/>
                        <Array as="points">
                            <mxPoint x="590" y="310"/>
                            <mxPoint x="590" y="280"/>
                            <mxPoint x="590" y="260"/>
                            <mxPoint x="560" y="260"/>
                        </Array>
                    </mxGeometry>
                </mxCell>
                <mxCell id="13" value="i ++" style="rounded=0;whiteSpace=wrap;html=1;" vertex="1" parent="1">
                    <mxGeometry x="550" y="458.75" width="80" height="57.5" as="geometry"/>
                </mxCell>
                <mxCell id="15" value="no" style="text;html=1;align=center;verticalAlign=middle;resizable=0;points=[];autosize=1;strokeColor=none;fillColor=none;" vertex="1" parent="1">
                    <mxGeometry x="470" y="470" width="30" height="20" as="geometry"/>
                </mxCell>
                <mxCell id="23" style="edgeStyle=none;html=1;entryX=0.5;entryY=0;entryDx=0;entryDy=0;" edge="1" parent="1" source="21" target="7">
                    <mxGeometry relative="1" as="geometry"/>
                </mxCell>
                <mxCell id="21" value="&lt;div style=&quot;color: rgb(101 , 123 , 131) ; background-color: rgb(253 , 246 , 227) ; font-family: &amp;#34;consolas&amp;#34; , &amp;#34;courier new&amp;#34; , monospace ; font-size: 16px ; line-height: 22px&quot;&gt;&lt;span style=&quot;color: #859900&quot;&gt;for&lt;/span&gt; (&lt;span style=&quot;color: #859900&quot;&gt;int&lt;/span&gt; i &lt;span style=&quot;color: #859900&quot;&gt;=&lt;/span&gt; &lt;span style=&quot;color: #d33682&quot;&gt;0&lt;/span&gt;; &lt;br&gt;&lt;span style=&quot;color: #268bd2&quot;&gt;i&lt;/span&gt; &lt;span style=&quot;color: #859900&quot;&gt;&amp;lt;&lt;/span&gt; &lt;span style=&quot;color: #268bd2&quot;&gt;arrayIn&lt;/span&gt;&lt;span style=&quot;color: #859900&quot;&gt;.&lt;/span&gt;&lt;span style=&quot;color: #268bd2&quot;&gt;Length&lt;/span&gt;; &lt;span style=&quot;color: #268bd2&quot;&gt;i&lt;/span&gt;&lt;span style=&quot;color: #859900&quot;&gt;++&lt;/span&gt;)&lt;/div&gt;" style="shape=hexagon;perimeter=hexagonPerimeter2;whiteSpace=wrap;html=1;fixedSize=1;" vertex="1" parent="1">
                    <mxGeometry x="190" y="320" width="260" height="80" as="geometry"/>
                </mxCell>
            </root>
        </mxGraphModel>
    </diagram>
</mxfile>